<svg
  width="20"
  height="20"
  viewBox="0 0 20 20"
  fill="none"
  xmlns="http://www.w3.org/2000/svg"
>
  <path
    d="M6.48438 16.0078C6.48438 16.0078 6.44531 15.9688 6.40625 15.9297C6.36719 15.9297 6.32812 15.8906 6.25 15.8906C6.09375 15.8906 6.05469 15.9688 6.05469 16.0469C6.05469 16.1641 6.09375 16.2031 6.25 16.2031C6.40625 16.2031 6.48438 16.125 6.48438 16.0078ZM5.27344 15.8516C5.27344 15.7734 5.35156 15.7344 5.50781 15.7734C5.625 15.8125 5.66406 15.8516 5.66406 15.9297C5.66406 16.0078 5.625 16.0469 5.58594 16.0469C5.50781 16.0859 5.46875 16.0859 5.42969 16.0469C5.35156 16.0469 5.3125 16.0078 5.27344 15.9688C5.23438 15.9297 5.23438 15.8906 5.27344 15.8516ZM6.99219 15.7734C7.10938 15.7734 7.1875 15.8125 7.1875 15.8906C7.1875 15.9688 7.14844 16.0469 7.03125 16.0859C6.95312 16.0859 6.91406 16.0859 6.875 16.0859C6.83594 16.0859 6.79688 16.0078 6.79688 15.9297C6.79688 15.8516 6.83594 15.8125 6.99219 15.7734ZM9.57031 0.8125C11.3281 0.8125 12.9688 1.24219 14.4922 2.0625C15.9766 2.92188 17.1875 4.05469 18.0469 5.46094C18.9062 6.94531 19.375 8.58594 19.375 10.3438C19.375 12.5312 18.75 14.4453 17.5391 16.1641C16.3281 17.8828 14.7656 19.0547 12.8125 19.6797C12.5781 19.7578 12.4219 19.7188 12.3047 19.6016C12.1875 19.5234 12.1484 19.3672 12.1484 19.2109V15.9297C12.1484 15.1094 11.9141 14.5234 11.4844 14.1328C12.4219 14.0547 13.1641 13.8984 13.6328 13.7422C14.3359 13.5078 14.9219 13.1172 15.3125 12.5703C15.7422 11.9062 15.9766 10.9688 15.9766 9.79688C15.9766 9.32812 15.8594 8.89844 15.7031 8.50781C15.5469 8.27344 15.3125 7.92188 14.9609 7.53125C15.0391 7.29688 15.1172 6.98438 15.1562 6.59375C15.1562 6.04688 15.0781 5.46094 14.8828 4.875C14.6094 4.79688 14.2578 4.875 13.7891 5.03125C13.4766 5.1875 13.0859 5.34375 12.6953 5.57812L12.1875 5.92969C11.3672 5.69531 10.5469 5.57812 9.6875 5.57812C8.82812 5.57812 8.04688 5.69531 7.26562 5.92969L6.75781 5.57812C6.32812 5.34375 5.9375 5.1875 5.625 5.03125C5.15625 4.875 4.80469 4.79688 4.57031 4.875C4.33594 5.46094 4.21875 6.04688 4.29688 6.59375C4.29688 6.98438 4.33594 7.25781 4.45312 7.49219C4.14062 7.88281 3.90625 8.27344 3.75 8.58594C3.59375 8.89844 3.55469 9.32812 3.55469 9.79688C3.55469 10.9688 3.75 11.9062 4.17969 12.5312C4.53125 13.0781 5.07812 13.5078 5.82031 13.7422C6.28906 13.8984 6.99219 14.0547 7.92969 14.1328C7.57812 14.4453 7.38281 14.9141 7.30469 15.4609C6.83594 15.6953 6.40625 15.7734 6.01562 15.6953C5.3125 15.6562 4.80469 15.3047 4.45312 14.6406C4.29688 14.3672 4.0625 14.1328 3.82812 13.9375C3.63281 13.8594 3.4375 13.7422 3.24219 13.6641L2.96875 13.625C2.65625 13.625 2.5 13.7031 2.5 13.7812C2.5 13.8594 2.53906 13.9766 2.69531 14.0547L2.89062 14.2109C3.04688 14.3281 3.24219 14.4844 3.4375 14.7188C3.59375 14.9141 3.71094 15.1094 3.82812 15.3438L3.98438 15.6562C4.10156 16.0469 4.33594 16.3594 4.72656 16.5547C5.03906 16.75 5.39062 16.8672 5.85938 16.9062C6.17188 16.9453 6.48438 16.9453 6.83594 16.8672L7.26562 16.8281L7.30469 19.2109C7.30469 19.3672 7.22656 19.5234 7.10938 19.6016C6.99219 19.7188 6.83594 19.7578 6.64062 19.6797C4.64844 19.0547 3.04688 17.8828 1.83594 16.1641C0.585938 14.4453 0 12.5312 0 10.3438C0 8.58594 0.390625 6.98438 1.25 5.5C2.07031 4.05469 3.20312 2.92188 4.6875 2.0625C6.13281 1.24219 7.77344 0.8125 9.57031 0.8125ZM3.78906 14.2891C3.82812 14.25 3.90625 14.25 3.98438 14.3281C4.0625 14.4062 4.0625 14.4844 4.02344 14.5234C3.94531 14.6016 3.90625 14.5625 3.82812 14.4844C3.75 14.4062 3.71094 14.3672 3.78906 14.2891ZM3.35938 13.9766C3.39844 13.9375 3.47656 13.9375 3.55469 13.9766C3.63281 14.0156 3.63281 14.0547 3.63281 14.1328C3.59375 14.2109 3.51562 14.2109 3.4375 14.1328C3.35938 14.0938 3.32031 14.0547 3.35938 13.9766ZM4.64844 15.3438C4.64844 15.3438 4.6875 15.3438 4.76562 15.3438C4.80469 15.3438 4.84375 15.3828 4.88281 15.4219C4.92188 15.4609 4.96094 15.5 4.96094 15.5391C4.96094 15.6172 4.96094 15.6562 4.96094 15.6562C4.88281 15.7344 4.76562 15.7344 4.6875 15.6172C4.60938 15.5781 4.60938 15.5391 4.60938 15.4609C4.60938 15.4219 4.60938 15.3828 4.64844 15.3438ZM4.17969 14.7969C4.21875 14.7969 4.25781 14.7969 4.29688 14.7969C4.33594 14.7969 4.375 14.8359 4.41406 14.875C4.49219 14.9922 4.49219 15.0703 4.41406 15.1094C4.375 15.1484 4.33594 15.1484 4.29688 15.1094C4.25781 15.1094 4.21875 15.0703 4.17969 15.0312C4.10156 14.9141 4.10156 14.8359 4.17969 14.7969Z"
    fill="white"
  />
</svg>