<svg
  width="23"
  height="27"
  viewBox="0 0 23 27"
  fill="none"
  xmlns="http://www.w3.org/2000/svg"
>
  <path
    d="M0 16.4285V21.357C0 24.0791 5.14873 26.2856 11.5 26.2856C17.8513 26.2856 23 24.0791 23 21.357V16.4285C23 19.1505 17.8513 21.357 11.5 21.357C5.14873 21.357 0 19.1505 0 16.4285Z"
    fill="#3033E1"
  />
  <path
    d="M0 8.21436V13.1429C0 15.865 5.14873 18.0715 11.5 18.0715C17.8513 18.0715 23 15.865 23 13.1429V8.21436C23 10.9363 17.8513 13.1429 11.5 13.1429C5.14873 13.1429 0 10.9363 0 8.21436Z"
    fill="#3033E1"
  />
  <path
    d="M23 4.92857C23 7.65054 17.8513 9.85714 11.5 9.85714C5.14873 9.85714 0 7.65054 0 4.92857C0 2.2066 5.14873 0 11.5 0C17.8513 0 23 2.2066 23 4.92857Z"
    fill="#3033E1"
  />
</svg>