<svg width="17" height="17" viewBox="0 0 17 17" fill="none" xmlns="http://www.w3.org/2000/svg">
<path d="M16.7143 7.07031C16.7143 7.21763 16.6272 7.37835 16.4531 7.55246L12.8069 11.1083L13.6708 16.1306C13.6775 16.1775 13.6808 16.2444 13.6808 16.3315C13.6808 16.4721 13.644 16.5893 13.5703 16.683C13.5033 16.7835 13.4029 16.8337 13.269 16.8337C13.1417 16.8337 13.0078 16.7935 12.8672 16.7132L8.35714 14.3426L3.8471 16.7132C3.69978 16.7935 3.56585 16.8337 3.44531 16.8337C3.30469 16.8337 3.19754 16.7835 3.12388 16.683C3.05692 16.5893 3.02344 16.4721 3.02344 16.3315C3.02344 16.2913 3.03013 16.2243 3.04353 16.1306L3.90737 11.1083L0.251116 7.55246C0.0837054 7.37165 0 7.21094 0 7.07031C0 6.82254 0.1875 6.66853 0.5625 6.60826L5.60491 5.875L7.86496 1.30469C7.99219 1.03013 8.15625 0.892857 8.35714 0.892857C8.55804 0.892857 8.7221 1.03013 8.84933 1.30469L11.1094 5.875L16.1518 6.60826C16.5268 6.66853 16.7143 6.82254 16.7143 7.07031Z" fill="#FFC300"/>
</svg>
