<svg
  width="26"
  height="26"
  viewBox="0 0 26 26"
  fill="none"
  xmlns="http://www.w3.org/2000/svg"
>
  <path
    d="M4.875 9.75001C4.875 8.85255 5.60255 8.12501 6.5 8.12501H8.12501V6.5C8.12501 5.60255 8.85255 4.875 9.75001 4.875C10.6475 4.875 11.375 5.60255 11.375 6.5V8.12501H13C13.8975 8.12501 14.625 8.85255 14.625 9.75001C14.625 10.6475 13.8975 11.375 13 11.375H11.375V13C11.375 13.8975 10.6475 14.625 9.75001 14.625C8.85254 14.625 8.12501 13.8975 8.12501 13V11.375H6.5C5.60255 11.375 4.875 10.6475 4.875 9.75001Z"
    fill="#3133E1"
  />
  <path
    fill-rule="evenodd"
    clip-rule="evenodd"
    d="M0 9.75002C0 4.36523 4.36523 0 9.75002 0C15.1348 0 19.5 4.36523 19.5 9.75002C19.5 11.8557 18.8325 13.8055 17.6974 15.3993L25.5241 23.226C26.1586 23.8606 26.1586 24.8895 25.5241 25.5241C24.8895 26.1586 23.8606 26.1586 23.226 25.5241L15.3993 17.6974C13.8055 18.8325 11.8557 19.5 9.75002 19.5C4.36523 19.5 0 15.1348 0 9.75002ZM9.75002 3.25001C6.16016 3.25001 3.25001 6.16016 3.25001 9.75002C3.25001 13.3398 6.16016 16.25 9.75002 16.25C13.3398 16.25 16.25 13.3398 16.25 9.75002C16.25 6.16016 13.3398 3.25001 9.75002 3.25001Z"
    fill="#3133E1"
  />
</svg>