<svg
  width="26"
  height="23"
  viewBox="0 0 26 23"
  fill="none"
  xmlns="http://www.w3.org/2000/svg"
>
  <path
    fill-rule="evenodd"
    clip-rule="evenodd"
    d="M0 3.25C0 1.45507 1.45507 0 3.25 0H22.75C24.545 0 26 1.45507 26 3.25V6.5C26 8.29493 24.545 9.75 22.75 9.75H3.25C1.45507 9.75 0 8.29493 0 6.5V3.25ZM22.75 4.875C22.75 5.77246 22.0225 6.5 21.125 6.5C20.2275 6.5 19.5 5.77246 19.5 4.875C19.5 3.97755 20.2275 3.25 21.125 3.25C22.0225 3.25 22.75 3.97755 22.75 4.875Z"
    fill="#3534E5"
  />
  <path
    fill-rule="evenodd"
    clip-rule="evenodd"
    d="M0 16.25C0 14.455 1.45507 13 3.25 13H22.75C24.545 13 26 14.455 26 16.25V19.5C26 21.295 24.545 22.75 22.75 22.75H3.25C1.45507 22.75 0 21.295 0 19.5V16.25ZM22.75 17.875C22.75 18.7725 22.0225 19.5 21.125 19.5C20.2275 19.5 19.5 18.7725 19.5 17.875C19.5 16.9775 20.2275 16.25 21.125 16.25C22.0225 16.25 22.75 16.9775 22.75 17.875Z"
    fill="#3534E5"
  />
</svg>