<svg
  width="26"
  height="26"
  viewBox="0 0 26 26"
  fill="none"
  xmlns="http://www.w3.org/2000/svg"
>
  <path
    fill-rule="evenodd"
    clip-rule="evenodd"
    d="M15.4199 1.90277C14.8041 -0.634258 11.1959 -0.634258 10.58 1.90277C10.1821 3.54167 8.30448 4.31943 6.86426 3.44189C4.63479 2.08344 2.08344 4.63479 3.44189 6.86426C4.31943 8.30448 3.54167 10.1821 1.90277 10.58C-0.634258 11.1959 -0.634258 14.8041 1.90277 15.4199C3.54167 15.8179 4.31943 17.6956 3.44189 19.1357C2.08344 21.3652 4.63479 23.9166 6.86427 22.5581C8.30448 21.6806 10.1821 22.4583 10.58 24.0973C11.1959 26.6342 14.8041 26.6342 15.4199 24.0973C15.8179 22.4583 17.6956 21.6806 19.1357 22.5581C21.3652 23.9166 23.9166 21.3652 22.5581 19.1357C21.6806 17.6956 22.4583 15.8179 24.0973 15.4199C26.6342 14.8041 26.6342 11.1959 24.0973 10.58C22.4583 10.1821 21.6806 8.30448 22.5581 6.86426C23.9166 4.63479 21.3652 2.08344 19.1357 3.44189C17.6956 4.31943 15.8179 3.54167 15.4199 1.90277ZM13 17.875C15.6925 17.875 17.875 15.6925 17.875 13C17.875 10.3076 15.6925 8.125 13 8.125C10.3076 8.125 8.125 10.3076 8.125 13C8.125 15.6925 10.3076 17.875 13 17.875Z"
    fill="#2C32DE"
  />
</svg>